<mxfile host="app.diagrams.net" modified="2024-01-19T16:05:11.689Z" agent="Mozilla/5.0 (Windows NT 10.0; Win64; x64) AppleWebKit/537.36 (KHTML, like Gecko) Chrome/120.0.0.0 Safari/537.36" etag="OMTY0iH1JtX_aFnWa1oX" version="22.1.21" type="github">
  <diagram name="Page-1" id="Y-IBK8_lrVYP1G2H312X">
    <mxGraphModel dx="845" dy="500" grid="1" gridSize="10" guides="1" tooltips="1" connect="1" arrows="1" fold="1" page="1" pageScale="1" pageWidth="850" pageHeight="1100" math="0" shadow="0">
      <root>
        <mxCell id="0" />
        <mxCell id="1" parent="0" />
        <mxCell id="zvdLutXropkOz51VJhZw-1" value="Windows 10 PC&lt;br&gt;Wazuh Agent&lt;br&gt;" style="fontColor=#0066CC;verticalAlign=top;verticalLabelPosition=bottom;labelPosition=center;align=center;html=1;outlineConnect=0;fillColor=#CCCCCC;strokeColor=#6881B3;gradientColor=none;gradientDirection=north;strokeWidth=2;shape=mxgraph.networks.pc;" vertex="1" parent="1">
          <mxGeometry x="325" y="470" width="100" height="70" as="geometry" />
        </mxCell>
        <mxCell id="zvdLutXropkOz51VJhZw-16" style="edgeStyle=orthogonalEdgeStyle;rounded=0;orthogonalLoop=1;jettySize=auto;html=1;shape=link;" edge="1" parent="1" source="zvdLutXropkOz51VJhZw-2" target="zvdLutXropkOz51VJhZw-4">
          <mxGeometry relative="1" as="geometry" />
        </mxCell>
        <mxCell id="zvdLutXropkOz51VJhZw-2" value="Router&lt;br&gt;" style="sketch=0;points=[[0.5,0,0],[1,0.5,0],[0.5,1,0],[0,0.5,0],[0.145,0.145,0],[0.8555,0.145,0],[0.855,0.8555,0],[0.145,0.855,0]];verticalLabelPosition=bottom;html=1;verticalAlign=top;aspect=fixed;align=center;pointerEvents=1;shape=mxgraph.cisco19.rect;prIcon=router;fillColor=#FAFAFA;strokeColor=#005073;" vertex="1" parent="1">
          <mxGeometry x="350" y="340" width="50" height="50" as="geometry" />
        </mxCell>
        <mxCell id="zvdLutXropkOz51VJhZw-3" value="Wazuh Manager&lt;br&gt;" style="image;aspect=fixed;perimeter=ellipsePerimeter;html=1;align=center;shadow=0;dashed=0;spacingTop=3;image=img/lib/active_directory/internet_cloud.svg;" vertex="1" parent="1">
          <mxGeometry x="140" y="220" width="50" height="31.5" as="geometry" />
        </mxCell>
        <mxCell id="zvdLutXropkOz51VJhZw-18" style="edgeStyle=orthogonalEdgeStyle;rounded=0;orthogonalLoop=1;jettySize=auto;html=1;entryX=1;entryY=1;entryDx=0;entryDy=0;shape=link;" edge="1" parent="1" source="zvdLutXropkOz51VJhZw-4" target="zvdLutXropkOz51VJhZw-3">
          <mxGeometry relative="1" as="geometry" />
        </mxCell>
        <mxCell id="zvdLutXropkOz51VJhZw-19" value="2. Receive Events" style="edgeLabel;html=1;align=center;verticalAlign=middle;resizable=0;points=[];" vertex="1" connectable="0" parent="zvdLutXropkOz51VJhZw-18">
          <mxGeometry x="0.3987" y="1" relative="1" as="geometry">
            <mxPoint as="offset" />
          </mxGeometry>
        </mxCell>
        <mxCell id="zvdLutXropkOz51VJhZw-4" value="Internet" style="image;aspect=fixed;perimeter=ellipsePerimeter;html=1;align=center;shadow=0;dashed=0;spacingTop=3;image=img/lib/active_directory/internet_cloud.svg;" vertex="1" parent="1">
          <mxGeometry x="350" y="240" width="50" height="31.5" as="geometry" />
        </mxCell>
        <mxCell id="zvdLutXropkOz51VJhZw-5" value="The Hive" style="image;aspect=fixed;perimeter=ellipsePerimeter;html=1;align=center;shadow=0;dashed=0;spacingTop=3;image=img/lib/active_directory/internet_cloud.svg;" vertex="1" parent="1">
          <mxGeometry x="560" y="220" width="50" height="31.5" as="geometry" />
        </mxCell>
        <mxCell id="zvdLutXropkOz51VJhZw-21" style="edgeStyle=orthogonalEdgeStyle;rounded=0;orthogonalLoop=1;jettySize=auto;html=1;exitX=0;exitY=0.5;exitDx=0;exitDy=0;entryX=0.5;entryY=0;entryDx=0;entryDy=0;shape=link;" edge="1" parent="1" source="zvdLutXropkOz51VJhZw-7" target="zvdLutXropkOz51VJhZw-3">
          <mxGeometry relative="1" as="geometry" />
        </mxCell>
        <mxCell id="zvdLutXropkOz51VJhZw-22" value="3. Send Alerts" style="edgeLabel;html=1;align=center;verticalAlign=middle;resizable=0;points=[];" vertex="1" connectable="0" parent="zvdLutXropkOz51VJhZw-21">
          <mxGeometry x="0.0888" y="-3" relative="1" as="geometry">
            <mxPoint as="offset" />
          </mxGeometry>
        </mxCell>
        <mxCell id="zvdLutXropkOz51VJhZw-24" style="edgeStyle=orthogonalEdgeStyle;rounded=0;orthogonalLoop=1;jettySize=auto;html=1;shape=link;fillColor=#d5e8d4;strokeColor=#82b366;" edge="1" parent="1" source="zvdLutXropkOz51VJhZw-7" target="zvdLutXropkOz51VJhZw-4">
          <mxGeometry relative="1" as="geometry" />
        </mxCell>
        <mxCell id="zvdLutXropkOz51VJhZw-25" value="4. Enrich IOC" style="edgeLabel;html=1;align=center;verticalAlign=middle;resizable=0;points=[];" vertex="1" connectable="0" parent="zvdLutXropkOz51VJhZw-24">
          <mxGeometry x="0.0254" y="-1" relative="1" as="geometry">
            <mxPoint as="offset" />
          </mxGeometry>
        </mxCell>
        <mxCell id="zvdLutXropkOz51VJhZw-26" style="rounded=0;orthogonalLoop=1;jettySize=auto;html=1;shape=link;fillColor=#d80073;strokeColor=#A50040;" edge="1" parent="1" source="zvdLutXropkOz51VJhZw-7" target="zvdLutXropkOz51VJhZw-5">
          <mxGeometry relative="1" as="geometry" />
        </mxCell>
        <mxCell id="zvdLutXropkOz51VJhZw-27" value="5. Send Alerts" style="edgeLabel;html=1;align=center;verticalAlign=middle;resizable=0;points=[];" vertex="1" connectable="0" parent="zvdLutXropkOz51VJhZw-26">
          <mxGeometry x="-0.0917" y="2" relative="1" as="geometry">
            <mxPoint as="offset" />
          </mxGeometry>
        </mxCell>
        <mxCell id="zvdLutXropkOz51VJhZw-7" value="Shuffle" style="image;aspect=fixed;perimeter=ellipsePerimeter;html=1;align=center;shadow=0;dashed=0;spacingTop=3;image=img/lib/active_directory/internet_cloud.svg;" vertex="1" parent="1">
          <mxGeometry x="350" y="110" width="50" height="31.5" as="geometry" />
        </mxCell>
        <mxCell id="zvdLutXropkOz51VJhZw-8" value="SOC Analyst" style="fontColor=#0066CC;verticalAlign=top;verticalLabelPosition=bottom;labelPosition=center;align=center;html=1;outlineConnect=0;fillColor=#CCCCCC;strokeColor=#6881B3;gradientColor=none;gradientDirection=north;strokeWidth=2;shape=mxgraph.networks.pc;" vertex="1" parent="1">
          <mxGeometry x="610" y="380" width="100" height="70" as="geometry" />
        </mxCell>
        <mxCell id="zvdLutXropkOz51VJhZw-9" style="edgeStyle=orthogonalEdgeStyle;rounded=0;orthogonalLoop=1;jettySize=auto;html=1;entryX=0.5;entryY=1;entryDx=0;entryDy=0;entryPerimeter=0;startArrow=classicThin;startFill=1;shape=link;fillColor=#f5f5f5;strokeColor=#666666;" edge="1" parent="1" source="zvdLutXropkOz51VJhZw-1" target="zvdLutXropkOz51VJhZw-2">
          <mxGeometry relative="1" as="geometry" />
        </mxCell>
        <mxCell id="zvdLutXropkOz51VJhZw-10" value="1. Send Events" style="edgeLabel;html=1;align=center;verticalAlign=middle;resizable=0;points=[];" vertex="1" connectable="0" parent="zvdLutXropkOz51VJhZw-9">
          <mxGeometry x="-0.075" relative="1" as="geometry">
            <mxPoint as="offset" />
          </mxGeometry>
        </mxCell>
      </root>
    </mxGraphModel>
  </diagram>
</mxfile>
